<?xml version="1.0" encoding="UTF-8"?>
<svg id="Layer_2" data-name="Layer 2" xmlns="http://www.w3.org/2000/svg" viewBox="0 0 73 73">
  <defs>
    <style>
      .cls-1 {
        fill: #fff;
        fill-rule: evenodd;
      }
    </style>
  </defs>
  <g id="Layer_2-2" data-name="Layer 2">
    <path class="cls-1" d="m35.36,0h2.27c1.15.86,2.39,1.63,3.42,2.61,2.28,2.15,4.46,4.4,6.66,6.63.74.75,1.42,1.55,2.12,2.33.13-.09.27-.18.41-.27,0-.52,0-1.04,0-1.56.02-3.4,1.78-5.16,5.19-5.19,1.03,0,2.05,0,3.08,0,3.55.02,5.35,1.83,5.36,5.41,0,4.43.06,8.86-.03,13.29-.03,1.52.42,2.57,1.49,3.67,2.65,2.72,5.12,5.62,7.66,8.45v2.27c-1.69,4.44-5.64,3.14-9.12,3.41v1.85c0,8.04-.06,16.07.03,24.11.04,2.84-.82,4.92-3.56,6h-14.6c-.02-7.34-.03-14.69-.05-22.03-.01-3.55-1.83-5.37-5.39-5.4-2.43-.02-4.86,0-7.29,0-3.99.01-5.7,1.73-5.71,5.73-.01,7.23-.03,14.47-.05,21.71h-14.6c-2.74-1.08-3.6-3.15-3.57-6,.1-8.04.04-16.07.04-24.11v-1.9c-1.25,0-2.32-.09-3.38.02-2.76.27-4.67-.81-5.74-3.37v-2.27c1.05-1.34,1.98-2.8,3.17-4C12.58,21.9,22.01,12.46,31.48,3.07c1.16-1.15,2.58-2.05,3.88-3.07Z"/>
  </g>
</svg>