<?xml version="1.0" encoding="UTF-8"?>
<svg id="Layer_2" data-name="Layer 2" xmlns="http://www.w3.org/2000/svg" viewBox="0 0 38.23 55">
  <defs>
    <style>
      .cls-1 {
        fill: #4285f3;
      }

      .cls-1, .cls-2, .cls-3, .cls-4, .cls-5 {
        fill-rule: evenodd;
      }

      .cls-2 {
        fill: #34a753;
      }

      .cls-3 {
        fill: #fabb05;
      }

      .cls-4 {
        fill: #1b73e7;
      }

      .cls-5 {
        fill: #e94335;
      }
    </style>
  </defs>
  <g id="Layer_2-2" data-name="Layer 2">
    <g>
      <path class="cls-2" d="m19.83,55h-1.43c-.64-.63-1.01-1.4-1.26-2.26-.95-3.29-2.43-6.31-4.44-9.08-.72-.98-1.38-2-2.07-3,4.07-4.84,8.15-9.68,12.22-14.52.19-.23.45-.43.44-.78,1.07-.95,2.01-2.01,2.71-3.26.32,0,.46-.25.64-.46,3.15-3.76,6.29-7.51,9.44-11.27.42.65.66,1.39.97,2.09.58,1.31.65,2.77,1.18,4.09v5.72c-.27.08-.2.32-.22.51-.35,2.34-1.08,4.55-2.16,6.65-1.5,2.93-3.52,5.5-5.56,8.04-3.9,4.87-7.73,9.77-9.34,15.98-.17.64-.56,1.15-1.11,1.53Z"/>
      <path class="cls-5" d="m1.94,28.28c-.97-1.85-1.43-3.84-1.74-5.88-.03-.19.05-.42-.21-.52v-5.11c.21-.06.18-.24.21-.4.59-3.53,1.88-6.75,4.31-9.45,2.99,2.49,5.98,4.99,8.98,7.48-.3.45-.61.89-.92,1.34-.19.08-.32.21-.3.44h.03c-.35.02-.5.32-.69.54-3.23,3.85-6.45,7.71-9.68,11.56Z"/>
      <path class="cls-4" d="m13.49,14.39c-2.99-2.49-5.98-4.99-8.98-7.48.8-1.1,1.79-2.03,2.87-2.84,2.14-1.61,4.42-2.88,7.13-3.36.73-.13,1.61-.14,2.25-.71h4.09c1.3.39,2.69.35,3.95.93-2.67,3.19-5.36,6.36-7.99,9.58-.67.82-1.65,1.44-1.88,2.59-.48.43-.96.86-1.44,1.3Z"/>
      <path class="cls-3" d="m1.94,28.28c3.22-3.85,6.45-7.71,9.68-11.56.19-.23.34-.52.69-.55-.08.33-.15.65-.24.98-1.16,4.37,1.51,8.51,5.96,9.3,1.92.34,3.6-.29,5.26-1.07,0,.35-.25.55-.44.78-4.07,4.84-8.14,9.68-12.22,14.52-2.88-3.57-5.9-7.03-8.09-11.09-.22-.42-.4-.86-.6-1.29Z"/>
      <path class="cls-1" d="m24.8.93c5.07,1.58,8.82,4.74,11.28,9.45-3.15,3.76-6.29,7.51-9.44,11.27-.17.21-.32.45-.64.46-.12-.33.09-.59.17-.88,1.03-3.69-.85-7.51-4.42-8.89-2.39-.92-4.66-.49-6.83.75.23-1.15,1.22-1.76,1.88-2.59,2.62-3.22,5.32-6.39,7.99-9.58Z"/>
      <path class="cls-3" d="m12.57,15.73c-.08.16-.05.39-.3.44-.02-.23.11-.35.3-.44Z"/>
    </g>
  </g>
</svg>