<?xml version="1.0" encoding="UTF-8"?>
<svg id="Layer_2" data-name="Layer 2" xmlns="http://www.w3.org/2000/svg" viewBox="0 0 726.45 541.67">
  <defs>
    <style>
      .cls-1 {
        fill: #ce8c73;
      }

      .cls-1, .cls-2, .cls-3, .cls-4, .cls-5, .cls-6, .cls-7, .cls-8, .cls-9, .cls-10, .cls-11 {
        fill-rule: evenodd;
      }

      .cls-2 {
        fill: #fff;
      }

      .cls-3 {
        fill: #cf7866;
      }

      .cls-4 {
        fill: #e9b849;
      }

      .cls-5 {
        fill: #333;
      }

      .cls-6 {
        fill: #f4a800;
      }

      .cls-7 {
        fill: #bf8208;
      }

      .cls-8 {
        fill: #b5b5b5;
      }

      .cls-9 {
        fill: #ae694c;
      }

      .cls-10 {
        fill: #0f0f0f;
      }

      .cls-11 {
        fill: #c63238;
      }
    </style>
  </defs>
  <g id="Layer_1-2" data-name="Layer 1">
    <g>
      <g>
        <g>
          <g>
            <path class="cls-5" d="m430.97,333.64c16.42-8.98,46.69,2.69,61.69,21.59,0,0,80.21,54.33,118.66,76.92,18.23,10.71-3.78,1.22,1.87,16.52,2.86,7.74,6.78,7.77,10.4,10.67,4.51,3.62,14.11,7.63,13.61,14.23-1.4,18.27-17.2,40.22-30.41,39.03-9.35-.84-18.89-10.18-18.89-10.18,0,0-.64,31.61-7.34,27.06-6.71-4.55-185.8-68.3-185.8-68.3l31.1-82.77,5.12-44.77Z"/>
            <path class="cls-10" d="m579.19,528.77c-10.04-4.67-67.44-25.58-115.59-42.92-1.13-27.31-3.36-37.36-3.36-37.36l96.52,37.04s.27,28.89,22.42,43.24Z"/>
            <path class="cls-5" d="m197.92,342.82c19.54-14.87,63.59-24.03,74.52-24.94,49.72-4.18,118.67-6.44,156.41,10.94,3.42,1.57,18.65,3.39,22.11,5.42,48.8,28.59,87.95,98.29,87.95,98.29l-76.17,46.12,2.7,54.1-217.86-1.67-13.21-59.83-99.46-35.09s28.45-67.03,63-93.33Z"/>
            <path class="cls-5" d="m492.27,460.77l-29.02,17.57c-1.18-21.68-3-29.86-3-29.86l32.02,12.29h0Zm-28.91,29.98c-3.69,22.1-43.78,16.69-117.03,17.22-78.01.56-80.25,6.73-90.35-12.91-10.1-19.64-28.62-71.83-28.62-71.83,0,0-7.58,14.28-21.1,38.09l28.12,9.92,13.21,59.83,217.86,1.67-2.1-41.99Z"/>
            <path class="cls-10" d="m492.27,460.77l-29.02,17.57c-1.18-21.68-3-29.86-3-29.86l32.02,12.29h0Zm-28.91,29.98c-3.69,22.1-43.78,16.69-117.03,17.22-78.01.56-80.25,6.73-90.35-12.91-10.1-19.64-28.62-71.83-28.62-71.83,0,0-7.58,14.28-21.1,38.09l28.12,9.92,13.21,59.83,217.86,1.67-2.1-41.99Z"/>
            <path class="cls-5" d="m218.34,348.18c-43.34-14.13-39.92,28.49-65.21,54.97-40.58,41.78-76.54,69.58-99.26,123.15l149.45,4.82,75.56-92.55s-48.18-86.35-60.55-90.39Z"/>
            <path class="cls-10" d="m165.91,529.91l37.41,1.21,44.4-54.38c-9.6-23.13-20.38-53.5-20.38-53.5,0,0-23.44,44.18-61.44,106.68Z"/>
            <path class="cls-5" d="m595.81,410.4c-26.25,2-32.75,28.81-40.83,55.73-3.29,10.97,8.56,51.36,19.65,59.76,22.71,17.2,62.57,4.17,73.67-17.77,11.1-21.94,5.05-92.74,5.05-92.74l-57.54-4.99Z"/>
            <path class="cls-5" d="m607.36,404.83c-19.71,1.83-24.6,26.45-30.66,51.17-6.07,24.72-2.3,39.07,14.76,54.87,17.06,15.79,46.99,3.83,55.33-16.31,8.34-20.14,3.79-85.15,3.79-85.15l-43.21-4.58Z"/>
            <path class="cls-5" d="m457.56,365.15c.25-.69,1.01-1.04,1.7-.79.69.25,1.04,1.01.79,1.7-.76,2.07-1.63,3.95-2.52,5.85-3.25,6.97-6.62,14.2-3.15,29.66,2.78,12.39,4.92,26.67,6.64,41.56,1.72,14.88,3.04,30.36,4.17,45.16.05.73-.49,1.36-1.22,1.42-.73.06-1.36-.49-1.42-1.22-1.13-14.78-2.44-30.23-4.16-45.06-1.72-14.82-3.84-29.02-6.59-41.28-3.67-16.35-.11-23.99,3.32-31.36.87-1.87,1.73-3.72,2.44-5.65Z"/>
            <path class="cls-5" d="m204.38,390.16c-.45-.57-.35-1.4.23-1.85.57-.45,1.41-.35,1.85.23,3.21,4.12,6.42,7.69,9.34,10.94,6.93,7.7,12.28,13.65,13.15,21.98,3.94,37.75,6.3,48.11,9.34,61.42.46,2.02.94,4.12,1.49,6.63.16.71-.29,1.42-1,1.57-.71.16-1.42-.29-1.57-1-.49-2.2-1-4.45-1.49-6.62-3.06-13.4-5.44-23.82-9.39-61.73-.78-7.47-5.88-13.14-12.49-20.48-2.92-3.25-6.14-6.82-9.46-11.08Z"/>
            <path class="cls-5" d="m579.11,414.6c.44-.58,1.27-.69,1.85-.25.58.44.69,1.27.25,1.85-1.39,1.82-3.31,4.12-5.36,6.58-4.71,5.65-10.2,12.24-12.23,16.59-5.96,12.74-7.39,26.2-6.23,39.37,1.17,13.23,4.96,26.16,9.41,37.77.26.68-.08,1.45-.77,1.71-.68.26-1.45-.08-1.71-.77-4.53-11.8-8.39-24.97-9.58-38.48-1.2-13.57.29-27.49,6.48-40.71,2.18-4.65,7.78-11.38,12.59-17.15,2-2.4,3.85-4.62,5.29-6.5Z"/>
          </g>
          <g>
            <path class="cls-6" d="m622.31,322.55c-6.72,16.49-47.23,120.75-44.84,142.69,2.4,21.94,19.21,45.06,35.91,42.52,16.7-2.54,29.05-8.74,39.65-31.24,10.6-22.5,7.79-148.04,7.79-148.04,0,0,21.29-28.74,23.58-40.9.05-.26-31.77-39.42-62.1,34.96Z"/>
            <path class="cls-6" d="m668.22,314.55l-27.74,38.29s-31.07,22.05-19.44-3.76c11.64-25.8,5.43-57.73,32.75-75.92,27.32-18.19,30.83-27.61,30.83-27.61,0,0,3.39-19.64,8.61-24.26,9.19-8.15,12.28-10.88,10.27.04l-2.83,11.58c12.5-7.72,8.79.94,4.35,9.48-2,3.84-3.13,5.51-5.76,8.97,12.52-6.46,12.05-2.11,6.16,7.17l-5.17,10.84c3.19-2.35,10.63-4.62,6.52,1.89-4.55,7.21-18.51,23.46-18.51,23.46l-20.52,21.44.5-1.6Z"/>
            <path class="cls-5" d="m667.37,263.45c-.31-.51-.14-1.17.36-1.48.51-.31,1.17-.15,1.48.36.03.05,11.08,17.76-.79,41.23-.27.53-.92.75-1.45.48-.53-.27-.75-.92-.48-1.45,11.32-22.39.9-39.09.87-39.14Z"/>
            <path class="cls-6" d="m626.66,313.39c-.32-22.97-1.47-25.76,4.84-45.17,2.62-8.07,3.79-14.66,4.27-19.61,2.36-24.75,12.69-3.77,13.54,1.93,1.94,13.07-2.82,21.88-2.82,21.88,0,0,8.45,5.87,6.56,24.26-1.89,18.39-26.06,39.67-26.38,16.7Z"/>
            <path class="cls-5" d="m703.13,230.73c.53-.28,1.18-.08,1.46.45.28.53.07,1.18-.45,1.46-3.72,1.96-6.22,3.74-8.13,5.76-1.9,2.02-3.23,4.31-4.61,7.27-2.79,6.02-3.47,9.83-3.47,9.84-.04.22-.15.41-.29.56l-15.1,15.37c-.42.43-1.1.43-1.53.01-.43-.42-.43-1.1-.01-1.53l14.87-15.14c.24-1.1,1.15-4.81,3.57-10.03,1.47-3.17,2.91-5.63,5-7.85,2.08-2.21,4.76-4.12,8.69-6.2Z"/>
            <path class="cls-5" d="m706.15,248.41c.58-.13,1.16.23,1.3.81s-.23,1.16-.81,1.3c-3.93.9-6.56,1.98-8.51,3.45-1.93,1.46-3.27,3.36-4.62,5.92-2.76,5.25-3.35,8.88-3.35,8.89-.05.31-.23.57-.47.73l-15.8,11.22c-.49.35-1.16.23-1.51-.25-.35-.49-.23-1.16.26-1.51l15.47-10.99c.26-1.19,1.13-4.63,3.48-9.09,1.49-2.84,2.99-4.96,5.23-6.64,2.21-1.67,5.09-2.86,9.34-3.84Z"/>
            <path class="cls-5" d="m704.71,266.92c.57-.19,1.18.12,1.37.68.19.57-.12,1.18-.68,1.37-3.39,1.14-5.79,2.28-7.78,3.69-1.98,1.4-3.58,3.1-5.37,5.33-3.62,4.51-5.07,7.51-5.08,7.51-.09.18-.21.32-.36.42l-15.58,10.61c-.49.34-1.17.21-1.5-.29-.34-.49-.21-1.17.28-1.5l15.35-10.46c.45-.86,2.06-3.75,5.2-7.66,1.91-2.38,3.64-4.19,5.81-5.73,2.16-1.54,4.74-2.77,8.35-3.98Z"/>
            <path class="cls-5" d="m649.68,277.47c-.33-.43-.25-1.06.19-1.39.44-.33,1.06-.25,1.39.19.01.02,4.06,5.08,1.13,20.35-.1.54-.62.89-1.16.79-.54-.1-.89-.62-.79-1.16,2.75-14.39-.75-18.76-.76-18.77Z"/>
          </g>
        </g>
        <g>
          <g>
            <path class="cls-2" d="m281.52,294.14c-12.46,10.2-20.02,22.74-12.35,43.59,14.82,40.28,37.53,95.13,59.34,63.71,21.81-31.42,25.4-45.61,25.4-45.61,0,0,35.2,35.06,52.99,32.64,18.46-2.5-14.43-68.8-46.67-90.54-16.5-13.22-74.38-7.34-78.71-3.79Z"/>
            <path class="cls-5" d="m215.46,199.9c-13.82,24.16-3,45.41,8.78,53.46,11.78,8.05,19.88,8.74,19.88,8.74,0,0-5.61,9.01-4.29,19.19,1.32,10.19,12.79-9.54,12.79-9.54,0,0-.94,13.65,5.39,14.64,6.34.99,7.34-19.51,7.34-19.51,0,0,12.29,7.44,19.15.32,6.86-7.11-22.25-86.03-24.61-87.24-2.37-1.21-30.61-4.22-44.43,19.94Z"/>
            <path class="cls-6" d="m271.14,239.78c6.55,38.8,9.28,60.66,10.42,72.56,1.32,13.92,80.87,57.49,77.47,18.01-1.4-16.26-3.72-36.99-1.6-40.21,10.93-16.63,31.46-31.47,31.46-31.47,0,0-129.89-90.84-117.75-18.89Z"/>
            <path class="cls-5" d="m292.09,259.21c12.99,25.48,34.33,53.35,65.25,52-.83-10.27-1.23-19.05.09-21.06,10.93-16.63,31.46-31.47,31.46-31.47,0,0-7.56-5.28-18.84-12.29-39.39-3.78-87.04-4.98-77.95,12.82Z"/>
            <path class="cls-5" d="m383.55,95.07c15.64-5.64,46.92.1,49.68,19.31,2.76,19.2-14.12,32.34-14.12,32.34,0,0,14.25,3.25,15.22,22.65.97,19.4-19.14,31.32-19.14,31.32,10,29.06-11.67,34.83-35.73,44.89l-44.57-142.25s33-2.63,48.64-8.26Z"/>
            <path class="cls-6" d="m251.5,190.67c-1.48,7.83,22.99,92.94,96.83,92.29,26.88-.24,42.3-6.73,51.56-29.1,7.41-17.88.34-61.87-14.43-98.81-29.62-74.08-91.98-48.52-110.05-23.24-18.06,25.28-22.44,51.04-23.92,58.86Z"/>
            <path class="cls-7" d="m362.42,119.95c-31.49-27.93-72.84-7.95-87,11.86-5.8,8.12-10.19,16.29-13.53,23.9,7.93,10.79,16.37,18.8,19.72,13.9,7.3-10.66-.56-35.92-.56-35.92,0,0,39.94-6.8,81.37-13.74Z"/>
            <path class="cls-5" d="m278.03,130.65c4.88,9.37,15.49,28.48,4.64,53.94-10.85,25.47-11.38,37.65-11.38,37.65,0,0,11.78.98-15.71-.17-27.49-1.15-60.25,20.02-76.68-9.28-13.63-24.31,6.68-42.03,6.68-42.03,0,0-31.32-10.93-23.2-34.93,7.44-22.01,34.53-23.15,34.53-23.15,0,0-21.11-10.56-14.86-20.02,7.54-11.41,19.82,5.02,19.82,5.02,0,0-20.16-27.73-1.36-50.86,21.83-26.86,38.09,5.38,38.09,5.38,0,0,8-38.48,39.58-41.88,31.58-3.4,17.84,24.81,17.84,24.81,0,0,30.03-38.17,70.04-34.94,40.01,3.23,14.55,30.14,14.55,30.14,0,0,30.79-12.76,44.52,7.66,15.86,23.59-7.57,38.87-7.57,38.87,0,0,18.4-3.29,14.23,11.28-5.02,17.54-66.49,24.27-66.49,24.27,0,0-92.15,8.86-87.27,18.23Z"/>
            <path class="cls-8" d="m237.13,49.67c.96,1.52,1.48,2.54,1.48,2.54,0,0,.79-3.78,2.84-9.07,18.63,13.89,38.95-2.07,38.95-2.07,0,0,4.49,7.86,21.89,11.78,17.4,3.93,43.21-14.03,43.21-14.03,0,0,7.3,2.81,30.87,1.68,13.68-.65,24.52-7.73,31.21-13.55,6.57,1.14,13.01,4.26,17.57,11.05,1.16,1.73,2.1,3.41,2.87,5.04-4.58,3.87-11.35,8.53-20.79,12.62-20.76,8.98-47.14,0-47.14,0,0,0-10.66,10.66-40.97,10.66s-31.43-7.3-31.43-7.3c0,0-5.61,5.61-24.69,6.73-14.26.84-23.51-6.48-25.86-16.09Z"/>
            <path class="cls-6" d="m232.95,208.33c7.44-14.38,28.98-16.89,42.92,11.6l3.07,8.56c-1.25,5.22-.79,17.59-10.53,22.77-8.88,6.5-28.5-.73-35.76-16.41-3.42-7.37-3.53-19.1.31-26.51Z"/>
            <path class="cls-1" d="m243.01,225.21c-.6-16.58,12.95-13.35,15.98-6.9,3.58,7.64,6.28,20.67,6.28,20.67,0,0-3.59-4.61-6.44-5.09-3-.5-10.07,2.26-8.03,7.84l-7.79-16.53Z"/>
            <path class="cls-9" d="m244.46,225.16c.03.8-.6,1.47-1.4,1.5-.8.03-1.47-.6-1.5-1.4-.19-5.27,1-8.77,2.86-10.9,1.25-1.44,2.79-2.26,4.43-2.58,1.59-.32,3.26-.16,4.83.34,2.85.92,5.42,3.03,6.62,5.58,3.65,7.8,6.38,20.95,6.39,20.99.16.79-.34,1.55-1.13,1.72-.58.12-1.16-.13-1.48-.58-.39-.49-3.35-4.14-5.49-4.49h-.04c-.74-.12-1.83.04-2.95.45-.91.33-1.79.82-2.48,1.45-.62.57-1.07,1.26-1.2,2.06-.09.57-.03,1.22.23,1.95.27.75-.12,1.59-.87,1.86-.75.27-1.59-.12-1.86-.87-.45-1.23-.54-2.37-.37-3.41.25-1.5,1.04-2.74,2.1-3.72.99-.92,2.22-1.61,3.45-2.05,1.57-.57,3.21-.78,4.39-.59h.06c1.21.21,2.49.98,3.63,1.88-1.1-4.42-2.91-10.89-5.03-15.41-.86-1.83-2.76-3.36-4.88-4.04-1.12-.36-2.29-.47-3.38-.25-1.04.21-2.02.73-2.81,1.64-1.41,1.61-2.3,4.44-2.14,8.89Z"/>
            <path class="cls-4" d="m262.19,251.32c-.69-.38-.95-1.25-.57-1.94.38-.69,1.25-.95,1.94-.57,6.34,3.47,9.31,13.03,9.6,22.24.1,3.2-.12,6.37-.63,9.23-.52,2.91-1.35,5.52-2.46,7.54-1.48,2.71-3.49,4.42-5.97,4.58-.37.09-.73.15-1.09.18-2.66.22-4.87-1.07-6.62-3.29-1.59-2.01-2.78-4.81-3.57-7.9-.49-1.93-.83-3.98-1-6.02-.83-10.01,1.9-20.08,1.9-20.11.2-.77.99-1.22,1.75-1.02.77.2,1.22.99,1.02,1.76,0,.03-2.61,9.62-1.81,19.13.16,1.88.46,3.77.92,5.55.69,2.72,1.72,5.15,3.04,6.83,1.16,1.47,2.55,2.33,4.13,2.2.24-.02.49-.06.74-.13h0c.1-.02.2-.03.31-.04,1.43-.04,2.7-1.21,3.73-3.1.96-1.75,1.69-4.06,2.16-6.68.48-2.67.68-5.64.59-8.65-.26-8.34-2.78-16.89-8.11-19.81Z"/>
            <path class="cls-2" d="m349.92,350.13c-.37-.63-.16-1.44.47-1.81s1.44-.16,1.81.47c4.5,7.58,8.39,16.19,11.73,25.52,3.57,9.98,6.52,20.82,8.92,32.15.15.71-.31,1.42-1.03,1.56-.71.15-1.41-.31-1.56-1.03-2.37-11.19-5.28-21.91-8.82-31.8-3.29-9.18-7.1-17.64-11.51-25.07Z"/>
          </g>
          <g>
            <path class="cls-3" d="m320.28,213.03c-2.12-12.42-29.3-5.37-27.23,4.4,2.59,12.22,29.21,7.19,27.23-4.4Z"/>
            <path class="cls-3" d="m399.4,196.64c-1.74-10.2-24.08-4.41-22.37,3.61,2.13,10.05,24,5.91,22.37-3.61Z"/>
            <path class="cls-5" d="m317.68,183c-.81-4.96-5.49-8.32-10.45-7.51-4.96.81-8.32,5.49-7.51,10.45l.17,1.04c.81,4.96,5.49,8.32,10.45,7.51,4.96-.81,8.32-5.49,7.51-10.45l-.17-1.04Z"/>
            <path class="cls-5" d="m381.51,172.55c-.81-4.95-5.49-8.32-10.45-7.51-4.95.81-8.32,5.49-7.51,10.45l.17,1.04c.81,4.96,5.49,8.32,10.45,7.51,4.95-.81,8.32-5.49,7.51-10.45l-.17-1.04Z"/>
            <path class="cls-2" d="m316.17,177.94c-.25-1.55-1.72-2.61-3.27-2.36-1.56.25-2.61,1.72-2.36,3.28l.05.33c.25,1.55,1.72,2.61,3.28,2.35,1.55-.25,2.61-1.72,2.36-3.28l-.05-.33Z"/>
            <path class="cls-2" d="m379.85,167.53c-.25-1.56-1.72-2.61-3.27-2.36-1.56.25-2.61,1.72-2.36,3.28l.05.32c.25,1.55,1.72,2.61,3.28,2.36,1.56-.25,2.61-1.72,2.36-3.28l-.06-.32Z"/>
            <path class="cls-5" d="m363.71,156.39c-1.45.78-3.26.24-4.04-1.21-.78-1.45-.24-3.26,1.21-4.04.03-.02,10.87-6.05,21.07,1.07,1.35.94,1.68,2.8.74,4.14-.94,1.35-2.8,1.68-4.14.73-7.14-4.98-14.81-.71-14.84-.7Z"/>
            <path class="cls-5" d="m312.84,159c1.62.28,2.71,1.83,2.43,3.45-.28,1.63-1.83,2.71-3.45,2.43-.02,0-8.65-1.6-13.83,5.39-.98,1.32-2.85,1.6-4.17.62-1.32-.98-1.6-2.85-.62-4.17,7.4-10,19.61-7.73,19.64-7.73Z"/>
            <path class="cls-5" d="m380.75,217.63c-.07-.45-55.81,8.97-55.81,8.97,0,.46,4.62,36.19,42.28,29.38,0,0,18.72-4.8,13.53-38.35Z"/>
            <path class="cls-11" d="m335.47,243.39c5.22,6.75,14.35,12.46,30.12,9.61,0,0,3.72-.95,7.11-5.13-6.66-10.55-28.33-16.66-37.23-4.48Z"/>
            <path class="cls-3" d="m366.48,203.9c-6.44,2.62-13.31,3.26-20.68,1.66,0,.1.01.19.02.29.43,5.32,5.08,9.28,10.4,8.86l1.44-.11c5.31-.43,9.28-5.08,8.86-10.4,0-.1-.02-.19-.03-.29Z"/>
            <path class="cls-5" d="m357.31,191.39c-.86-.51-1.14-1.61-.63-2.46.51-.86,1.61-1.14,2.46-.63.03.02,10.15,5.89,9.31,17.56-.07.99-.93,1.74-1.92,1.67-.99-.07-1.74-.93-1.67-1.92.68-9.43-7.53-14.19-7.55-14.2Z"/>
            <path class="cls-2" d="m377.68,227.31c-7.19,2.01-18.71,5.85-47.52,6.41l-1.54-4.35c22.9-3.79,27.24-4.29,48.3-8.32l.77,6.27Z"/>
          </g>
          <g>
            <path class="cls-5" d="m246.12,208.17c8.85-3.56,17.62,5.38,22.24,15.3,4.62,9.93,6.19,18.03-2.66,21.6-8.85,3.57-22.62-2.52-27.25-12.45-4.62-9.93-1.19-20.89,7.66-24.45Z"/>
            <path class="cls-5" d="m256.53,229.18c-.7-1.43-.11-3.15,1.32-3.84,1.43-.7,3.15-.11,3.84,1.32,26.41,54.02,82.54,30.62,82.7,30.55,1.47-.6,3.15.11,3.75,1.59.6,1.48-.11,3.15-1.59,3.75-.18.07-61.23,25.52-90.02-33.37Z"/>
            <path class="cls-5" d="m330.51,262.81c-1.07-3.82,1.17-7.74,5.01-8.75l16.52-4.36c3.84-1.01,7.82,1.27,8.89,5.09,1.07,3.82-1.18,7.74-5.01,8.75l-16.52,4.36c-3.84,1.01-7.82-1.27-8.89-5.09Z"/>
          </g>
        </g>
      </g>
      <path class="cls-6" d="m9.86,515.02h706.73c5.42,0,9.86,6,9.86,13.32h0c0,7.33-4.44,13.32-9.86,13.32H9.86c-5.42,0-9.86-6-9.86-13.32h0c0-7.33,4.44-13.32,9.86-13.32Z"/>
    </g>
  </g>
</svg>